<?xml version="1.0" encoding="UTF-8"?>
<!DOCTYPE svg PUBLIC "-//W3C//DTD SVG 1.1//EN" "http://www.w3.org/Graphics/SVG/1.1/DTD/svg11.dtd">
<svg xmlns="http://www.w3.org/2000/svg" version="1.1" width="63px" height="35px" style="shape-rendering:geometricPrecision; text-rendering:geometricPrecision; image-rendering:optimizeQuality; fill-rule:evenodd; clip-rule:evenodd" xmlns:xlink="http://www.w3.org/1999/xlink">
<g><path style="opacity:0.85" fill="#fefffe" d="M 44.5,-0.5 C 45.5,-0.5 46.5,-0.5 47.5,-0.5C 48.4124,0.738195 48.5791,2.07153 48,3.5C 37.6312,13.7016 27.4645,24.0349 17.5,34.5C 16.8333,34.5 16.1667,34.5 15.5,34.5C 10.1929,29.5279 4.85954,24.5279 -0.5,19.5C -0.5,17.8333 -0.5,16.1667 -0.5,14.5C 0.873441,14.3433 2.20677,14.51 3.5,15C 7.6816,19.3487 12.0149,23.5154 16.5,27.5C 26.1877,18.479 35.521,9.14567 44.5,-0.5 Z"/></g>
<g><path style="opacity:0.8" fill="#fefffe" d="M 58.5,-0.5 C 59.8333,-0.5 61.1667,-0.5 62.5,-0.5C 62.5,1.16667 62.5,2.83333 62.5,4.5C 52.1667,14.1667 42.1667,24.1667 32.5,34.5C 31.5,34.5 30.5,34.5 29.5,34.5C 28.5423,33.0384 27.3756,31.7051 26,30.5C 26.0173,28.4324 27.0173,26.7657 29,25.5C 29.6667,26.1667 30.3333,26.8333 31,27.5C 40.3689,18.2984 49.5356,8.96503 58.5,-0.5 Z"/></g>
<g><path style="opacity:0.715" fill="#fefffe" d="M 14.5,14.5 C 17.967,14.4457 20.6337,15.9457 22.5,19C 19.522,23.6197 16.6887,23.453 14,18.5C 13.4209,17.0715 13.5876,15.7382 14.5,14.5 Z"/></g>
</svg>
